classDiagram
    class MaterialServiceImpl {
        - Logger log
        - Json json
        +MaterialDao materialDao
        +MaterialOfferDao materialOfferDao
    }

    class OfferAvailabilityServiceImpl {
        - Logger log
        - Json json
        #OfferDao offerDao
        #MaterialDao materialDao
        #MaterialOfferDao materialOfferDao
        +PopulateResponseComponent populateResponseComponent
        +WebClientService webClientService
    }

    class OfferServiceImpl {
        - Logger log
        - Json json
        #OfferDao offerDao
        #MaterialDao materialDao
        #MaterialOfferDao materialOfferDao
        #SynchronizationDao synchronizationDao
        +WebClientService webClientService
        +PopulateResponseComponent populateResponseComponent
    }

    class OfferAvailabilityService

    class CartAvailabilityService

    class WebClientService {
        - Logger log
        - WebClient webClient
    }

    class OfferService

    class MaterialService

    class CartAvailabilityServiceImpl {
        - Logger log
        - Json json
        +OfferDao offerDao
        +MaterialDao materialDao
        +MaterialOfferDao materialOfferDao
        +PopulateResponseComponent populateResponseComponent
        +WebClientService webClientService
    }

    MaterialServiceImpl --|> MaterialService: implements
    OfferAvailabilityServiceImpl --|> OfferAvailabilityService: implements
    OfferServiceImpl --|> OfferService: implements
    CartAvailabilityServiceImpl --|> CartAvailabilityService: implements
    OfferServiceImpl "1" -- "1" WebClientService: has-a
    OfferAvailabilityServiceImpl "1" -- "1" WebClientService: has-a
    CartAvailabilityServiceImpl "1" -- "1" WebClientService: has-a