---
title: Package Share (com.bouqs.offerservice.share)
---
classDiagram
    class ResponseEntityBuilder{
        
    }

    class LogAspect{
        -Logger log
    }

    class ApiExceptionHandler{
        -Logger log
    }

    class ApiError{
        -HttpStatus status
        -String message
        -List<String> errors
    }

    ResponseEntityExceptionHandler <|-- ApiExceptionHandler: extends
    ResponseEntityBuilder <|-- LogAspect: extends
    ResponseEntityBuilder --|> ApiError: has-a